REM MD5 3fbe0f8bbd6e5c5c9d33cfe5490ac0a1
FILE "Euro Demo 26 (Europe).bin" BINARY
  TRACK 01 MODE2/2352
    INDEX 01 00:00:00
  TRACK 02 AUDIO
    INDEX 00 31:01:37
    INDEX 01 31:03:37
  TRACK 03 AUDIO
    INDEX 00 34:03:38
    INDEX 01 34:05:38
REM LEADOUT 37:22:68
